<?xml version="1.0" encoding="UTF-8"?>
<svg id="Layer_1" xmlns="http://www.w3.org/2000/svg" version="1.1" viewBox="0 0 100 100">
  <!-- Generator: Adobe Illustrator 29.1.0, SVG Export Plug-In . SVG Version: 2.1.0 Build 142)  -->
  <defs>
    <style>
      .st0 {
        fill: #e5e5e5;
      }
    </style>
  </defs>
  <g>
    <path class="st0" d="M2.53,83.33l-2.35,5.06h.38l.59-1.27h.11c.12-.14.25-.26.4-.35h-.35l1.2-2.59,1.14,2.59h-.43c.16.09.29.21.39.35h.19l.56,1.27h.38l-2.22-5.06Z"/>
    <path class="st0" d="M65.75,83.39h-.02v4.99h.35v-4.42c-.12-.18-.24-.37-.32-.58Z"/>
    <path class="st0" d="M99.63,86.45s-.06-.08-.1-.12c-.03.1-.08.21-.13.31-.01.02-.02.03-.04.05.07.12.11.25.11.39,0,.27-.14.51-.41.71-.28.21-.63.32-1.04.32-.2,0-.39-.03-.57-.08-.18-.05-.34-.13-.47-.23-.26-.18-.4-.41-.41-.69l-.33.18c.06.31.24.58.53.79.17.12.36.22.58.28.22.07.44.1.68.1.48,0,.89-.13,1.25-.38.17-.13.31-.28.4-.45.09-.17.14-.35.14-.54,0-.22-.07-.43-.2-.62Z"/>
    <path class="st0" d="M96.63,85.54c0-.05.02-.11.03-.16.02-.08.06-.17.09-.24-.11-.15-.17-.31-.17-.46,0-.13.04-.25.11-.37s.17-.23.31-.33c.13-.1.29-.18.47-.23.18-.05.37-.08.56-.08s.38.03.56.08c.18.05.34.13.48.23.13.1.23.2.3.32.07.12.11.24.11.37l.33-.18c-.05-.3-.23-.56-.52-.78-.36-.26-.78-.38-1.25-.38-.24,0-.46.03-.68.1-.21.07-.41.16-.58.28-.17.13-.31.28-.4.44-.09.17-.14.34-.14.53,0,.24.07.45.21.66.05.07.11.14.18.2Z"/>
    <path class="st0" d="M33.91,83.41c-.2,0-.11,0-.35,0l-1.45,2.04-1.38-2.02c-.17,0-.19-.03-.49-.03l1.67,2.34-1.67,2.34c.29,0,.32-.02.49-.03l1.38-2.02,1.45,2.04c.24,0,.14,0,.35,0l-1.6-2.33,1.6-2.33Z"/>
  </g>
  <g>
    <polygon class="st0" points="56.73 11.56 50.93 25.75 40.6 34.66 56.73 11.56"/>
    <polygon class="st0" points="62.77 36.14 51.79 26.64 40.89 36.14 62.77 36.14"/>
  </g>
</svg>